<svg width="117" height="33" viewBox="0 0 117 33" fill="none" xmlns="http://www.w3.org/2000/svg">
<path fill-rule="evenodd" clip-rule="evenodd" d="M27.4928 3.37634L25.8441 6.75229L25.9081 6.90212C25.9433 6.98454 28.847 12.8903 32.3608 20.026L38.7494 33H42.0813H45.4131L45.3649 32.9122C45.3384 32.8639 41.687 25.4389 37.2506 16.412C32.8141 7.38515 29.1747 -0.00023404 29.1629 5.56259e-09C29.1512 0.000234051 28.3996 1.51958 27.4928 3.37634ZM8.73926 15.3775C4.54828 23.8148 0.867474 31.225 0.559678 31.8446L0 32.971L9.65724 32.9542C14.9687 32.9449 19.3225 32.9279 19.3323 32.9164C19.3422 32.9049 18.6183 31.3963 17.7236 29.5639L16.097 26.2322L13.1529 26.2222C11.5335 26.2167 10.2087 26.201 10.2087 26.1872C10.2087 26.1734 11.5852 23.3384 13.2677 19.8873C15.0913 16.1467 16.3389 13.6268 16.3569 13.6479C16.3734 13.6672 18.5439 18.0162 21.1801 23.3123L25.9732 32.9415L29.3534 32.9514L32.7335 32.9614L32.6672 32.8344C32.6307 32.7646 28.9572 25.3701 24.5037 16.4023C20.0503 7.43442 16.3959 0.0835542 16.3829 0.066976C16.3698 0.0504368 12.9302 6.94016 8.73926 15.3775ZM48.3538 9.35968C48.4126 10.1841 48.7097 10.892 49.2477 11.4896C49.6487 11.9349 50.0418 12.1783 50.5785 12.3135C50.8449 12.3807 51.1878 12.3845 56.9486 12.3845H63.0371L63.3207 12.2962C64.1869 12.0268 64.9319 11.299 65.2779 10.3843C65.3789 10.1171 65.4795 9.61635 65.4969 9.29313L65.5102 9.04933H56.9209H48.3316L48.3538 9.35968ZM69.8013 10.7171L71.2274 12.3848V19.0846V25.7844L72.6536 25.7743L74.0799 25.7641L74.0965 20.7612L74.1132 15.7584L76.2398 18.2453L78.3665 20.7321L78.375 23.2481L78.3835 25.7641L79.8098 25.7743L81.236 25.7844V23.2582V20.7319L83.371 18.2358L85.506 15.7396L85.5145 20.7519L85.523 25.7641L86.9492 25.7743L88.3754 25.7844V19.0846V12.3848L89.8015 10.7171L91.2275 9.04933H89.0926H86.9576L83.3795 13.2328L79.8014 17.4163L76.2233 13.2328L72.6452 9.04933H70.5103H68.3753L69.8013 10.7171ZM94.1136 17.4169V25.7844L95.5399 25.7743L96.9661 25.7641L96.9745 17.4067L96.9829 9.04933H95.5483H94.1136V17.4169ZM101.262 10.7171L102.688 12.3848V19.0846V25.7844L104.114 25.7743L105.54 25.7641L105.549 20.7518L105.557 15.7396L109.853 20.762L114.148 25.7845L115.566 25.7743L116.983 25.7641L116.992 17.4067L117 9.04933H115.565H114.131V14.881C114.131 18.0884 114.119 20.7126 114.106 20.7126C114.092 20.7126 111.836 18.0884 109.093 14.881L104.106 9.04933H101.971H99.8355L101.262 10.7171ZM48.3412 20.752V25.7844L49.7674 25.7743L51.1937 25.7641L51.2022 22.4192L51.2107 19.0743H56.9321H62.6535V22.4294V25.7844L64.0797 25.7743L65.5059 25.7641V20.7516V15.7391L56.9236 15.7293L48.3412 15.7195V20.752Z" fill="white"/>
</svg>
